<?xml version="1.0" encoding="iso-8859-1"?>
<!-- Generator: Adobe Illustrator 19.0.0, SVG Export Plug-In . SVG Version: 6.00 Build 0)  -->
<svg version="1.1" id="Layer_1" xmlns="http://www.w3.org/2000/svg" xmlns:xlink="http://www.w3.org/1999/xlink" x="0px" y="0px"
	 viewBox="0 0 512 512" style="enable-background:new 0 0 512 512;" xml:space="preserve">
<g>
	<g>
		<path d="M437.638,428.047c-5.051,0-9.143,4.094-9.143,9.143v10.74c0,5.049,4.092,9.143,9.143,9.143s9.143-4.094,9.143-9.143
			v-10.74C446.781,432.14,442.689,428.047,437.638,428.047z"/>
	</g>
</g>
<g>
	<g>
		<path d="M437.638,482.974c-5.051,0-9.143,4.094-9.143,9.143v10.74c0,5.049,4.092,9.143,9.143,9.143s9.143-4.094,9.143-9.143
			v-10.74C446.781,487.068,442.689,482.974,437.638,482.974z"/>
	</g>
</g>
<g>
	<g>
		<path d="M470.472,460.88h-10.741c-5.051,0-9.143,4.094-9.143,9.143c0,5.049,4.092,9.143,9.143,9.143h10.741
			c5.051,0,9.143-4.094,9.143-9.143C479.615,464.974,475.521,460.88,470.472,460.88z"/>
	</g>
</g>
<g>
	<g>
		<path d="M415.544,460.88h-10.741c-5.05,0-9.143,4.094-9.143,9.143c0,5.049,4.092,9.143,9.143,9.143h10.741
			c5.05,0,9.143-4.094,9.143-9.143C424.687,464.974,420.595,460.88,415.544,460.88z"/>
	</g>
</g>
<g>
	<g>
		<path d="M67.672,81.18c-5.049,0-9.143,4.094-9.143,9.143v7.999c0,5.049,4.094,9.143,9.143,9.143c5.049,0,9.143-4.094,9.143-9.143
			v-7.999C76.815,85.274,72.721,81.18,67.672,81.18z"/>
	</g>
</g>
<g>
	<g>
		<path d="M67.672,122.093c-5.049,0-9.143,4.094-9.143,9.143v7.999c0,5.049,4.094,9.143,9.143,9.143
			c5.049,0,9.143-4.094,9.143-9.143v-7.999C76.815,126.186,72.722,122.093,67.672,122.093z"/>
	</g>
</g>
<g>
	<g>
		<path d="M92.127,105.635h-7.999c-5.049,0-9.143,4.094-9.143,9.143c0,5.049,4.094,9.143,9.143,9.143h7.999
			c5.049,0,9.143-4.094,9.143-9.143C101.27,109.729,97.176,105.635,92.127,105.635z"/>
	</g>
</g>
<g>
	<g>
		<path d="M51.216,105.635h-7.999c-5.049,0-9.143,4.094-9.143,9.143c0,5.049,4.094,9.143,9.143,9.143h7.999
			c5.049,0,9.143-4.094,9.143-9.143C60.359,109.729,56.265,105.635,51.216,105.635z"/>
	</g>
</g>
<g>
	<g>
		<path d="M285.986,122.351l-5.723-42.405c-0.612-4.535-4.484-7.92-9.061-7.92h-31.659V9.143c0-5.049-4.094-9.143-9.143-9.143
			c-5.049,0-9.143,4.094-9.143,9.143v62.883h-31.672c-4.578,0-8.45,3.385-9.061,7.923l-5.71,42.4
			C92.603,146.431,32.385,222.513,32.385,312.407c0,109.183,88.827,198.01,198.01,198.01s198.011-88.827,198.011-198.01
			C428.406,222.516,368.193,146.436,285.986,122.351z M395.4,241.206c-7.631-7.397-16.507-14.329-26.583-20.676
			c-9.495-5.982-19.784-11.273-30.705-15.84c-4.568-10.921-9.857-21.21-15.84-30.707c-6.349-10.077-13.283-18.951-20.682-26.584
			C343.532,165.565,377.233,199.266,395.4,241.206z M404.215,284.585c-9.784-4.796-22.506-9.062-38.159-12.778
			c-3.4-0.807-6.904-1.58-10.503-2.319c-1.981-14.029-4.932-27.619-8.802-40.566c4.25,2.23,8.365,4.587,12.321,7.079
			C381.041,249.843,396.412,266.534,404.215,284.585z M282.661,364.671c19.107-1.282,37.254-3.27,53.875-5.906
			c-2.726,16.662-6.918,32.563-12.487,47.294c-14.731,5.567-30.632,9.761-47.295,12.487
			C279.391,401.924,281.377,383.777,282.661,364.671z M276.753,206.268c16.663,2.726,32.564,6.919,47.295,12.487
			c5.569,14.73,9.761,30.631,12.487,47.294c-16.622-2.638-34.767-4.624-53.875-5.906
			C281.378,241.035,279.391,222.889,276.753,206.268z M283.665,346.275c0.468-11.074,0.709-22.396,0.709-33.869
			s-0.241-22.795-0.709-33.869c19.806,1.391,38.455,3.567,55.306,6.452c0.844,8.99,1.276,18.148,1.276,27.416
			s-0.432,18.426-1.276,27.416C322.12,342.708,303.471,344.884,283.665,346.275z M306.801,183.73
			c2.493,3.956,4.849,8.071,7.079,12.321c-12.948-3.869-26.537-6.819-40.566-8.802c-0.739-3.6-1.512-7.105-2.32-10.505
			c-3.717-15.656-7.986-28.375-12.782-38.159C276.265,146.388,292.958,161.759,306.801,183.73z M230.395,202.556
			c9.268,0,18.426,0.432,27.416,1.276c2.885,16.851,5.06,35.5,6.452,55.306c-11.075-0.468-22.396-0.709-33.869-0.709
			s-22.794,0.241-33.868,0.709c1.391-19.806,3.567-38.455,6.452-55.306C211.97,202.987,221.127,202.556,230.395,202.556z
			 M206.637,185.172c0.314-1.409,0.624-2.832,0.951-4.204c9.357-39.416,19.864-48.286,22.807-48.286
			c2.944,0,13.451,8.871,22.807,48.286c0.326,1.374,0.636,2.796,0.951,4.204c-7.828-0.597-15.757-0.903-23.758-0.903
			S214.465,184.575,206.637,185.172z M230.395,276.713c11.855,0,23.528,0.267,34.917,0.775c0.508,11.39,0.775,23.061,0.775,34.917
			c0,11.856-0.267,23.528-0.775,34.917c-11.39,0.508-23.061,0.775-34.917,0.775c-11.855,0-23.526-0.267-34.916-0.775
			c-0.508-11.39-0.775-23.061-0.775-34.917c0-11.857,0.267-23.528,0.775-34.917C206.869,276.98,218.54,276.713,230.395,276.713z
			 M197.578,90.312h65.631l3.708,27.472c-11.842-2.217-24.047-3.39-36.523-3.39c-12.473,0-24.676,1.172-36.517,3.389L197.578,90.312
			z M202.581,138.585c-4.797,9.784-9.067,22.501-12.784,38.16c-0.807,3.4-1.58,6.905-2.319,10.505
			c-14.029,1.981-27.619,4.932-40.568,8.802c2.23-4.25,4.587-8.365,7.079-12.321C167.834,161.758,184.527,146.387,202.581,138.585z
			 M177.128,346.275c-19.806-1.392-38.455-3.567-55.306-6.452c-0.845-8.99-1.276-18.148-1.276-27.416s0.432-18.426,1.276-27.416
			c16.851-2.885,35.5-5.06,55.306-6.452c-0.468,11.075-0.709,22.396-0.709,33.869S176.659,335.2,177.128,346.275z M178.131,364.67
			c1.282,19.107,3.269,37.254,5.907,53.875c-16.663-2.726-32.564-6.919-47.295-12.487c-5.567-14.73-9.761-30.631-12.487-47.294
			C140.878,361.401,159.024,363.387,178.131,364.67z M178.131,260.141c-19.107,1.282-37.254,3.269-53.875,5.906
			c2.726-16.662,6.918-32.564,12.487-47.295c14.731-5.566,30.633-9.76,47.295-12.485C181.4,222.888,179.415,241.034,178.131,260.141
			z M159.205,147.398c-7.4,7.632-14.336,16.507-20.686,26.585c-5.983,9.496-11.273,19.784-15.84,30.705
			c-10.921,4.568-21.211,9.857-30.707,15.84c-10.073,6.346-18.949,13.275-26.579,20.671
			C83.562,199.261,117.264,165.563,159.205,147.398z M101.72,236c3.956-2.493,8.071-4.849,12.321-7.08
			c-3.869,12.949-6.819,26.539-8.802,40.567c-3.6,0.739-7.105,1.512-10.505,2.319c-15.659,3.717-28.376,7.987-38.16,12.784
			C64.377,266.536,79.749,249.843,101.72,236z M50.671,312.407c0-2.944,8.871-13.451,48.286-22.807
			c1.374-0.327,2.797-0.636,4.206-0.951c-0.597,7.828-0.903,15.757-0.903,23.758s0.306,15.93,0.903,23.758
			c-1.409-0.315-2.832-0.624-4.206-0.951C59.542,325.856,50.671,315.349,50.671,312.407z M94.735,353.005
			c3.4,0.807,6.905,1.58,10.505,2.319c1.981,14.03,4.932,27.619,8.802,40.567c-4.25-2.231-8.365-4.587-12.321-7.08
			c-21.971-13.842-37.342-30.535-45.144-48.588C66.359,345.019,79.078,349.288,94.735,353.005z M65.388,383.599
			c7.632,7.4,16.506,14.335,26.584,20.684c9.496,5.983,19.785,11.273,30.707,15.84c4.568,10.922,9.857,21.21,15.84,30.705
			c6.341,10.064,13.26,18.944,20.648,26.569C117.239,459.227,83.55,425.532,65.388,383.599z M153.99,441.082
			c-2.493-3.956-4.849-8.071-7.079-12.321c12.948,3.869,26.537,6.821,40.568,8.802c0.739,3.6,1.512,7.105,2.319,10.505
			c3.716,15.651,7.981,28.375,12.774,38.156C184.521,478.42,167.83,463.049,153.99,441.082z M253.202,443.844
			c-9.356,39.415-19.863,48.286-22.807,48.286c-2.943,0-13.451-8.871-22.807-48.286c-0.325-1.374-0.636-2.797-0.951-4.205
			c7.827,0.597,15.757,0.903,23.758,0.903s15.93-0.306,23.758-0.903C253.839,441.049,253.529,442.472,253.202,443.844z
			 M230.395,422.256c-9.268,0-18.426-0.432-27.416-1.276c-2.885-16.851-5.06-35.5-6.452-55.306
			c11.074,0.468,22.395,0.709,33.868,0.709c11.472,0,22.795-0.241,33.869-0.709c-1.392,19.806-3.567,38.455-6.452,55.306
			C248.822,421.825,239.665,422.256,230.395,422.256z M258.222,486.222c4.792-9.782,9.057-22.506,12.772-38.155
			c0.807-3.401,1.581-6.905,2.32-10.505c14.029-1.981,27.62-4.932,40.568-8.802c-2.23,4.25-4.587,8.365-7.079,12.321
			C292.962,463.048,276.272,478.419,258.222,486.222z M301.592,477.412c7.398-7.632,14.331-16.507,20.68-26.583
			c5.983-9.496,11.273-19.785,15.84-30.707c10.921-4.568,21.21-9.857,30.707-15.84c10.067-6.343,18.945-13.266,26.572-20.656
			C377.222,425.557,343.526,459.248,301.592,477.412z M359.07,388.812c-3.956,2.492-8.071,4.849-12.321,7.079
			c3.87-12.948,6.822-26.537,8.803-40.566c3.6-0.739,7.103-1.512,10.503-2.319c15.659-3.717,28.377-7.987,38.16-12.784
			C396.414,358.276,381.041,374.969,359.07,388.812z M361.834,335.214c-1.374,0.327-2.797,0.636-4.204,0.951
			c0.597-7.828,0.903-15.757,0.903-23.758s-0.306-15.93-0.903-23.758c1.409,0.315,2.832,0.624,4.204,0.951
			c39.415,9.357,48.286,19.864,48.286,22.807C410.121,315.349,401.249,325.856,361.834,335.214z"/>
	</g>
</g>
<g>
</g>
<g>
</g>
<g>
</g>
<g>
</g>
<g>
</g>
<g>
</g>
<g>
</g>
<g>
</g>
<g>
</g>
<g>
</g>
<g>
</g>
<g>
</g>
<g>
</g>
<g>
</g>
<g>
</g>
</svg>
